<?xml version="1.0" encoding="UTF-8" standalone="no"?>
<!-- Created with Inkscape (http://www.inkscape.org/) -->

<svg
   width="26.855913"
   height="27.343899"
   viewBox="0 0 26.855913 27.343899"
   version="1.1"
   id="svg1"
   xml:space="preserve"
   inkscape:export-filename="point.svg"
   inkscape:export-xdpi="96"
   inkscape:export-ydpi="96"
   xmlns:inkscape="http://www.inkscape.org/namespaces/inkscape"
   xmlns:sodipodi="http://sodipodi.sourceforge.net/DTD/sodipodi-0.dtd"
   xmlns="http://www.w3.org/2000/svg"
   xmlns:svg="http://www.w3.org/2000/svg"><sodipodi:namedview
     id="namedview1"
     pagecolor="#ffffff"
     bordercolor="#000000"
     borderopacity="0.25"
     inkscape:showpageshadow="2"
     inkscape:pageopacity="0.0"
     inkscape:pagecheckerboard="0"
     inkscape:deskcolor="#d1d1d1"
     inkscape:document-units="px" /><defs
     id="defs1" /><g
     inkscape:label="Camada 1"
     inkscape:groupmode="layer"
     id="layer1"
     transform="translate(-2.6272538,-2.1907198)"><path
       style="fill:#7e2e8b;fill-opacity:1"
       d="m 15.728072,29.119611 c 0,-0.298083 -0.199587,-0.422859 -0.443526,-0.27728 -0.547812,0.326926 -3.443062,-1.240936 -6.1618477,-3.336818 -2.3207711,-1.789058 -2.3060318,-1.883936 0.8025789,-5.166268 l 1.9231748,-2.030649 1.099098,1.289451 c 0.604504,0.709199 2.355967,2.593989 3.892138,4.188423 1.683647,1.747501 2.586916,3.021982 2.274095,3.208669 -0.28542,0.170334 -0.392389,0.507429 -0.23771,0.7491 0.457059,0.71411 1.113663,0.04088 2.194432,-2.249981 0.892815,-1.892465 0.991195,-2.786037 0.81,-7.357057 -0.140232,-3.537627 -0.422482,-5.454552 -0.881828,-5.988999 -0.59329,-0.690292 -0.540129,-0.89195 0.436429,-1.655531 0.611605,-0.47822 1.955737,-1.113587 2.98696,-1.411926 2.044001,-0.591342 2.498678,-1.323356 0.821978,-1.323356 -2.255301,0 -7.817622,3.834233 -13.551236,9.341171 C 5.2973095,23.241216 5.8878355,23.125158 3.4873225,18.711212 1.9095457,15.810074 2.2761637,14.929459 6.5026114,11.468501 14.269007,5.1087474 19.470287,2.1907199 23.039925,2.1907199 c 2.239337,0 4.69831,1.2519552 4.69831,2.3920859 0,0.4402106 0.168946,0.9012072 0.375437,1.0244382 0.206491,0.12323 0.429131,0.904487 0.494756,1.736125 0.06563,0.831638 0.342848,1.772146 0.616052,2.090018 0.761443,0.885938 -0.284394,10.192119 -1.497141,13.322033 -0.558177,1.440568 -1.870233,3.504972 -2.915681,4.587566 -1.861423,1.927562 -1.975237,1.971981 -5.4922,2.143473 -2.522408,0.122997 -3.591386,0.0138 -3.591386,-0.366848 z"
       id="path1" /></g></svg>
